<svg id="Raggruppa_12" data-name="Raggruppa 12" xmlns="http://www.w3.org/2000/svg" width="50" height="50" viewBox="0 0 50 50">
  <g id="Rettangolo_73" data-name="Rettangolo 73" fill="#fff" stroke="#707070" stroke-width="1" opacity="0">
    <rect width="49.85" height="49.75" stroke="none"/>
    <rect x="0.5" y="0.5" width="48.85" height="48.75" fill="none"/>
  </g>
  <path id="Icon_awesome-plus" data-name="Icon awesome-plus" d="M46.289,21.795H30.266V5.8A3.558,3.558,0,0,0,26.705,2.25H23.145A3.558,3.558,0,0,0,19.584,5.8V21.795H3.561A3.558,3.558,0,0,0,0,25.348V28.9a3.558,3.558,0,0,0,3.561,3.554H19.584V48.446A3.558,3.558,0,0,0,23.145,52h3.561a3.558,3.558,0,0,0,3.561-3.554V32.455H46.289A3.558,3.558,0,0,0,49.85,28.9V25.348A3.558,3.558,0,0,0,46.289,21.795Z" transform="translate(0.15 -2)" fill="#476692"/>
</svg>
