<svg id="Raggruppa_13" data-name="Raggruppa 13" xmlns="http://www.w3.org/2000/svg" width="50.15" height="50.25" viewBox="0 0 50.15 50.25">
  <g id="Raggruppa_12" data-name="Raggruppa 12">
    <g id="Rettangolo_73" data-name="Rettangolo 73" fill="#fff" stroke="#707070" stroke-width="1" opacity="0">
      <rect width="50" height="50" stroke="none"/>
      <rect x="0.5" y="0.5" width="49" height="49" fill="none"/>
    </g>
  </g>
  <path id="Icon_awesome-plus" data-name="Icon awesome-plus" d="M46.429,21.893H30.357V5.821A3.572,3.572,0,0,0,26.786,2.25H23.214a3.572,3.572,0,0,0-3.571,3.571V21.893H3.571A3.572,3.572,0,0,0,0,25.464v3.571a3.572,3.572,0,0,0,3.571,3.571H19.643V48.679a3.572,3.572,0,0,0,3.571,3.571h3.571a3.572,3.572,0,0,0,3.571-3.571V32.607H46.429A3.572,3.572,0,0,0,50,29.036V25.464A3.572,3.572,0,0,0,46.429,21.893Z" transform="translate(0.15 -2)" fill="#fff"/>
</svg>
