<svg xmlns="http://www.w3.org/2000/svg" width="60" height="60" viewBox="0 0 60 60">
  <g id="Raggruppa_15" data-name="Raggruppa 15" transform="translate(0 0)">
    <g id="Raggruppa_13" data-name="Raggruppa 13">
      <path id="Icon_material-account-box" data-name="Icon material-account-box" d="M4.5,11.167V57.833A6.665,6.665,0,0,0,11.167,64.5H57.833A6.686,6.686,0,0,0,64.5,57.833V11.167A6.686,6.686,0,0,0,57.833,4.5H11.167A6.665,6.665,0,0,0,4.5,11.167ZM44.5,24.5a10,10,0,1,1-10-10A9.987,9.987,0,0,1,44.5,24.5Zm-30,26.667c0-6.667,13.333-10.333,20-10.333s20,3.667,20,10.333V54.5h-40Z" transform="translate(-4.5 -4.5)" fill="#476692"/>
      <path id="Icon_material-fiber-new" data-name="Icon material-fiber-new" d="M25.666,6H5.518A2.407,2.407,0,0,0,3.013,8.323L3,22.258a2.418,2.418,0,0,0,2.518,2.323H25.666a2.418,2.418,0,0,0,2.518-2.323V8.323A2.418,2.418,0,0,0,25.666,6ZM11.185,18.774H9.674L6.463,14.71v4.064H4.889V11.806H6.463l3.148,4.064V11.806h1.574Zm6.3-5.5H14.333v1.3h3.148v1.463H14.333v1.289h3.148v1.452H12.444V11.806h5.037ZM26.3,17.613a1.217,1.217,0,0,1-1.259,1.161H20a1.217,1.217,0,0,1-1.259-1.161V11.806h1.574v5.237h1.423V12.956h1.574v4.076h1.41V11.806H26.3Z" transform="translate(31.816 -6)" fill="#e8d92a"/>
    </g>
  </g>
</svg>
