<svg xmlns="http://www.w3.org/2000/svg" width="55.137" height="50" viewBox="0 0 55.137 50">
  <g id="Raggruppa_17" data-name="Raggruppa 17" transform="translate(-1058 -623)">
    <g id="Raggruppa_16" data-name="Raggruppa 16" transform="translate(1058 623)">
      <path id="Icon_material-account-box" data-name="Icon material-account-box" d="M4.5,10.056V48.944A5.86,5.86,0,0,0,10.626,54.5H53.51c3.369,0,6.126-2.5,6.126-5.556V10.056C59.637,7,56.88,4.5,53.51,4.5H10.626A5.86,5.86,0,0,0,4.5,10.056ZM41.258,21.167c0,4.611-4.1,8.333-9.189,8.333s-9.189-3.722-9.189-8.333,4.1-8.333,9.189-8.333S41.258,16.556,41.258,21.167ZM13.689,43.389c0-5.556,12.253-8.611,18.379-8.611s18.379,3.056,18.379,8.611v2.778H13.689Z" transform="translate(-4.5 -4.5)" fill="#476692"/>
      <path id="Icon_material-fiber-new" data-name="Icon material-fiber-new" d="M14.25,6h-10A1.24,1.24,0,0,0,3.006,7.25L3,14.75A1.246,1.246,0,0,0,4.25,16h10a1.246,1.246,0,0,0,1.25-1.25V7.25A1.246,1.246,0,0,0,14.25,6ZM7.063,12.875h-.75L4.719,10.688v2.188H3.938V9.125h.781l1.563,2.188V9.125h.781Zm3.125-2.963H8.625v.7h1.563V11.4H8.625v.694h1.563v.781h-2.5V9.125h2.5v.788Zm4.375,2.338a.627.627,0,0,1-.625.625h-2.5a.627.627,0,0,1-.625-.625V9.125h.781v2.819H12.3v-2.2h.781v2.194h.7V9.125h.781Z" transform="translate(36.027 -3)" fill="#e8d92a"/>
    </g>
  </g>
</svg>
