<svg xmlns="http://www.w3.org/2000/svg" width="20" height="20" viewBox="0 0 20 20">
  <path id="Icon_material-account-box" data-name="Icon material-account-box" d="M4.5,6.722V22.278A2.222,2.222,0,0,0,6.722,24.5H22.278A2.229,2.229,0,0,0,24.5,22.278V6.722A2.229,2.229,0,0,0,22.278,4.5H6.722A2.222,2.222,0,0,0,4.5,6.722Zm13.333,4.444A3.333,3.333,0,1,1,14.5,7.833,3.329,3.329,0,0,1,17.833,11.167Zm-10,8.889c0-2.222,4.444-3.444,6.667-3.444s6.667,1.222,6.667,3.444v1.111H7.833Z" transform="translate(-4.5 -4.5)" fill="#707070"/>
</svg>
