<svg id="Raggruppa_13" data-name="Raggruppa 13" xmlns="http://www.w3.org/2000/svg" width="50" height="50" viewBox="0 0 50 50">
  <g id="Raggruppa_12" data-name="Raggruppa 12" transform="translate(8.823)">
    <g id="Rettangolo_73" data-name="Rettangolo 73" transform="translate(-8.823)" fill="#476692" stroke="#707070" stroke-width="1" opacity="0">
      <rect width="50" height="50" stroke="none"/>
      <rect x="0.5" y="0.5" width="49" height="49" fill="none"/>
    </g>
    <path id="Icon_awesome-share-square" data-name="Icon awesome-share-square" d="M49.347,15.4l-12.5,11.8a2.085,2.085,0,0,1-3.514-1.515V19.446c-12.55.084-17.844,3.048-14.3,14.874a1.39,1.39,0,0,1-2.171,1.5c-3.383-2.569-6.443-7.484-6.443-12.445,0-12.495,10.208-14.974,22.917-15.044V2.084A2.085,2.085,0,0,1,36.847.57l12.5,11.8A2.084,2.084,0,0,1,49.347,15.4ZM33.333,32.91v5.978H5.556V11.111h4.42a1.041,1.041,0,0,0,.751-.321,16.923,16.923,0,0,1,4.428-3.27,1.041,1.041,0,0,0-.481-1.964H4.167A4.167,4.167,0,0,0,0,9.722V40.278a4.167,4.167,0,0,0,4.167,4.167H34.722a4.167,4.167,0,0,0,4.167-4.167V32.569a1.041,1.041,0,0,0-1.39-.981,6.235,6.235,0,0,1-2.968.293A1.044,1.044,0,0,0,33.333,32.91Z" transform="translate(-8.823 1.478)" fill="#476692"/>
  </g>
</svg>
