<svg id="Raggruppa_17" data-name="Raggruppa 17" xmlns="http://www.w3.org/2000/svg" width="60" height="60" viewBox="0 0 60 60">
  <g id="Raggruppa_16" data-name="Raggruppa 16">
    <g id="Raggruppa_15" data-name="Raggruppa 15">
      <path id="Icon_awesome-file-download" data-name="Icon awesome-file-download" d="M21.875,13.281V0H2.344A2.338,2.338,0,0,0,0,2.344V47.656A2.338,2.338,0,0,0,2.344,50H35.156A2.338,2.338,0,0,0,37.5,47.656V15.625H24.219A2.351,2.351,0,0,1,21.875,13.281Zm7.466,20.641-9.416,9.346a1.665,1.665,0,0,1-2.348,0L8.161,33.922a1.562,1.562,0,0,1,1.1-2.672h6.365V23.438a1.562,1.562,0,0,1,1.563-1.562h3.125a1.562,1.562,0,0,1,1.563,1.563V31.25H28.24A1.563,1.563,0,0,1,29.341,33.922Zm7.476-23.668L27.256.684A2.342,2.342,0,0,0,25.6,0H25V12.5H37.5v-.6A2.336,2.336,0,0,0,36.816,10.254Z" transform="translate(11 5)" fill="#fff"/>
      <rect id="Rettangolo_73" data-name="Rettangolo 73" width="60" height="60" fill="rgba(255,255,255,0)"/>
    </g>
  </g>
</svg>
