<svg xmlns="http://www.w3.org/2000/svg" width="20.042" height="20" viewBox="0 0 20.042 20">
  <g id="Raggruppa_10" data-name="Raggruppa 10" transform="translate(2065 2484)">
    <path id="Icon_material-question-answer" data-name="Icon material-question-answer" d="M22.04,7h-2v9H7.008v2a1,1,0,0,0,1,1H19.034l4.008,4V8A1,1,0,0,0,22.04,7Zm-4.008,6V4a1,1,0,0,0-1-1H4A1,1,0,0,0,3,4V18l4.008-4H17.029A1,1,0,0,0,18.031,13Z" transform="translate(-2068 -2487)" fill="#707070"/>
    <path id="Icon_awesome-question-circle" data-name="Icon awesome-question-circle" d="M5.563,3.062a2.5,2.5,0,1,1-2.5-2.5A2.5,2.5,0,0,1,5.563,3.062ZM3.13,1.389a1.306,1.306,0,0,0-1.175.643.121.121,0,0,0,.027.164l.35.265A.121.121,0,0,0,2.5,2.44c.18-.228.3-.361.578-.361.206,0,.461.133.461.332,0,.151-.125.228-.328.342-.237.133-.551.3-.551.712v.04a.121.121,0,0,0,.121.121h.565a.121.121,0,0,0,.121-.121V3.493c0-.287.839-.3.839-1.075A1.15,1.15,0,0,0,3.13,1.389Zm-.067,2.5a.464.464,0,1,0,.464.464A.464.464,0,0,0,3.063,3.889Z" transform="translate(-2060.075 -2482)" fill="#476692"/>
  </g>
</svg>
