<svg id="Raggruppa_19" data-name="Raggruppa 19" xmlns="http://www.w3.org/2000/svg" width="60" height="60" viewBox="0 0 60 60">
  <g id="Raggruppa_18" data-name="Raggruppa 18">
    <g id="Raggruppa_17" data-name="Raggruppa 17">
      <g id="Raggruppa_16" data-name="Raggruppa 16">
        <g id="Raggruppa_15" data-name="Raggruppa 15">
          <rect id="Rettangolo_73" data-name="Rettangolo 73" width="60" height="60" fill="rgba(255,255,255,0)"/>
        </g>
      </g>
    </g>
  </g>
  <path id="Icon_material-fiber-new" data-name="Icon material-fiber-new" d="M57,6H9a5.734,5.734,0,0,0-5.97,5.533L3,44.733a5.761,5.761,0,0,0,6,5.533H57a5.761,5.761,0,0,0,6-5.533v-33.2A5.761,5.761,0,0,0,57,6ZM22.5,36.433H18.9L11.25,26.75v9.683H7.5v-16.6h3.75l7.5,9.683V19.833H22.5Zm15-13.114H30v3.1h7.5V29.9H30v3.071h7.5v3.458h-12v-16.6h12Zm21,10.347a2.9,2.9,0,0,1-3,2.767h-12a2.9,2.9,0,0,1-3-2.767V19.833h3.75V32.311h3.39V22.572h3.75v9.711h3.36V19.833H58.5Z" transform="translate(-3 2)" fill="#e8d92a"/>
</svg>
